<?xml version="1.0" encoding="UTF-8" standalone="no"?>
<!DOCTYPE svg PUBLIC "-//W3C//DTD SVG 1.1//EN" "http://www.w3.org/Graphics/SVG/1.1/DTD/svg11.dtd">
<svg version="1.1" xmlns="http://www.w3.org/2000/svg" xmlns:xlink="http://www.w3.org/1999/xlink" preserveAspectRatio="xMidYMid meet" viewBox="0 0 15 15" width="15" height="15"><defs><path d="M3.92 7.75C3.92 8.76 3.16 9.58 2.22 9.58C1.29 9.58 0.53 8.76 0.53 7.75C0.53 6.73 1.29 5.91 2.22 5.91C3.16 5.91 3.92 6.73 3.92 7.75Z" id="a2WhdoDNf0"></path><path d="M9.08 7.75C9.08 8.76 8.32 9.58 7.38 9.58C6.45 9.58 5.69 8.76 5.69 7.75C5.69 6.73 6.45 5.91 7.38 5.91C8.32 5.91 9.08 6.73 9.08 7.75Z" id="b1pW4Q571X"></path><path d="M14.24 7.75C14.24 8.76 13.48 9.58 12.54 9.58C11.61 9.58 10.85 8.76 10.85 7.75C10.85 6.73 11.61 5.91 12.54 5.91C13.48 5.91 14.24 6.73 14.24 7.75Z" id="cjyR7PaZc"></path></defs><g><g><g><use xlink:href="#a2WhdoDNf0" opacity="1" fill="#acacac" fill-opacity="1"></use></g><g><use xlink:href="#b1pW4Q571X" opacity="1" fill="#acacac" fill-opacity="1"></use></g><g><use xlink:href="#cjyR7PaZc" opacity="1" fill="#acacac" fill-opacity="1"></use></g></g></g></svg>